<svg version="1.1" xmlns="http://www.w3.org/2000/svg" width="512" height="512">
<path d="M0 0 C29.83117256 17.65764356 47.71378409 69.58103293 55.93383789 101.19262695 C57.02895738 105.64753051 57.97061137 110.12796258 58.875 114.625 C59.07254883 115.57922852 59.27009766 116.53345703 59.47363281 117.51660156 C65.09844235 145.7142965 65.60920803 177.39703432 59.875 205.625 C59.67632324 206.60710449 59.47764648 207.58920898 59.27294922 208.60107422 C51.07631327 247.75459289 35.40027271 282.80715663 11 314.5 C10.57227295 315.06460937 10.1445459 315.62921875 9.70385742 316.2109375 C6.09495832 320.7810429 1.83176476 324.78982473 -4.125 325.625 C-11.76484383 326.3593288 -17.04489522 324.81661302 -23.375 320.3125 C-28.19762625 315.59947889 -29.77973585 310.88182821 -30.24609375 304.2734375 C-29.90052453 296.71550427 -26.22078372 291.44300838 -21.23046875 286.1015625 C-1.23205506 262.57838202 10.25858785 231.33714443 16.875 201.625 C17.05434082 200.84495605 17.23368164 200.06491211 17.41845703 199.26123047 C27.92245248 151.53950339 15.93780211 96.61156214 -9.6875 55.5625 C-10.8111 53.90140866 -11.95866123 52.25636608 -13.125 50.625 C-13.9375267 49.4778835 -14.75002457 48.33074657 -15.5625 47.18359375 C-17.28283405 44.76437399 -19.013413 42.35288402 -20.75 39.9453125 C-27.59419912 30.42555464 -31.3864717 24.74363258 -30.125 12.625 C-27.86027822 6.62019827 -23.62373955 2.24794473 -17.80078125 -0.453125 C-12.12315344 -2.40921283 -5.56291799 -2.36340404 0 0 Z " fill="#C0C0C0" transform="translate(270.125,93.375)"/>
<path d="M0 0 C7.70243553 4.68830193 11.37770191 12.10523917 15.0625 20.0625 C15.53582764 21.07014404 16.00915527 22.07778809 16.49682617 23.1159668 C21.08621438 33.03546753 25.03108 43.1426051 28.6875 53.4375 C28.95900879 54.18773437 29.23051758 54.93796875 29.51025391 55.7109375 C35.59791725 72.61651772 39.94501258 90.03941883 42.9375 107.75 C43.08848145 108.64219238 43.23946289 109.53438477 43.39501953 110.45361328 C43.87075081 113.4436943 44.29005858 116.4359504 44.6875 119.4375 C44.77470306 120.0923941 44.86190613 120.74728821 44.95175171 121.42202759 C46.70191159 134.95424914 47.04897798 148.36640977 47 162 C46.99817719 163.05576233 46.99635437 164.11152466 46.99447632 165.19927979 C46.94817644 181.14664839 46.39388421 196.68932729 43.6875 212.4375 C43.52121094 213.46746094 43.35492188 214.49742187 43.18359375 215.55859375 C38.29384357 245.44040043 28.15637423 303.06240062 2.6875 323.4375 C-2.82815823 327.33881923 -8.81024747 327.1979474 -15.3125 326.4375 C-21.26979919 324.70606822 -24.82779752 321.45957122 -28.3125 316.4375 C-31.16658401 310.31206086 -31.49990567 304.09017388 -29.40234375 297.63769531 C-28.13194437 294.72415076 -26.75241743 291.89599972 -25.3125 289.0625 C-24.29415574 286.95438617 -23.28122094 284.84365154 -22.2734375 282.73046875 C-21.77038086 281.67907715 -21.26732422 280.62768555 -20.74902344 279.54443359 C-17.12354261 271.70319142 -14.23465435 263.56060089 -11.3125 255.4375 C-11.07337891 254.79119629 -10.83425781 254.14489258 -10.58789062 253.47900391 C-3.72053712 234.88579533 0.41004636 215.09881996 2.6875 195.4375 C2.7817627 194.68839355 2.87602539 193.93928711 2.97314453 193.16748047 C4.0638198 183.25774936 3.93135782 173.26939419 3.9375 163.3125 C3.93817474 162.33084869 3.93884949 161.34919739 3.93954468 160.33779907 C3.9141303 137.04468849 1.32798043 115.07204592 -4.3125 92.4375 C-4.52745117 91.56706055 -4.74240234 90.69662109 -4.96386719 89.79980469 C-9.27673998 72.70948214 -15.59525974 56.2502395 -23.1796875 40.34765625 C-23.87239746 38.88573853 -23.87239746 38.88573853 -24.57910156 37.39428711 C-25.45361204 35.57123767 -26.34740242 33.75724835 -27.26464844 31.95532227 C-30.53050485 25.19136785 -31.80530779 18.4330026 -29.60766602 11.07885742 C-27.38981318 5.62921781 -23.28166345 2.38634648 -18.3125 -0.5625 C-12.42614627 -2.52461791 -5.71014423 -2.579486 0 0 Z " fill="#C0C0C0" transform="translate(373.3125,93.5625)"/>
<path d="M0 0 C13.47798905 10.55854078 26.12869453 23.22492888 35.359375 37.6796875 C35.96910156 38.59363281 36.57882813 39.50757813 37.20703125 40.44921875 C60.52320537 76.5591584 69.32187324 120.85783064 60.90283203 163.17041016 C54.13289459 194.42890838 38.91695655 225.52992955 15.359375 247.6796875 C14.699375 247.6796875 14.039375 247.6796875 13.359375 247.6796875 C13.359375 248.3396875 13.359375 248.9996875 13.359375 249.6796875 C3.56307007 258.80105016 -7.63092881 269.20689098 -21.42578125 269.08984375 C-27.3051485 268.33974222 -32.1484589 265.43627441 -36.11328125 261.05078125 C-40.3311633 255.01875638 -40.15736585 248.76373475 -39.640625 241.6796875 C-36.68222957 233.11591127 -28.40765691 227.97577614 -21.5234375 222.58398438 C-18.28382179 220.00146053 -15.36158177 217.51162242 -12.765625 214.26953125 C-11.71375 212.98755859 -11.71375 212.98755859 -10.640625 211.6796875 C-9.980625 211.6796875 -9.320625 211.6796875 -8.640625 211.6796875 C-8.35920654 211.08978027 -8.07778809 210.49987305 -7.7878418 209.89208984 C-6.74102094 207.8733006 -5.61657689 206.11938761 -4.28515625 204.28125 C15.44245013 176.62690449 24.48057562 145.14020942 19.66796875 111.05859375 C16.2105465 90.77019466 7.78880834 72.06481538 -4.50390625 55.640625 C-6.16560307 53.33794458 -7.50065816 51.26193284 -8.640625 48.6796875 C-9.300625 48.6796875 -9.960625 48.6796875 -10.640625 48.6796875 C-11.60383998 47.61588361 -12.50972675 46.5000953 -13.390625 45.3671875 C-17.28389685 40.75111412 -21.78128143 37.24331566 -26.57714844 33.62573242 C-32.56515376 29.08818092 -37.29965279 25.07223131 -39.640625 17.6796875 C-40.4331859 11.65405329 -39.7598976 5.9601704 -36.640625 0.6796875 C-26.06888411 -12.30006104 -11.82272782 -8.88604791 0 0 Z " fill="#C0C0C0" transform="translate(182.640625,125.3203125)"/>
<path d="M0 0 C4.48846979 2.62989017 7.47301021 6.49143197 10.6875 10.5 C11.42419922 11.28310547 11.42419922 11.28310547 12.17578125 12.08203125 C26.93772445 27.79892495 31.2555939 49.15255981 30.96484375 70.02734375 C30.36483944 87.21851209 23.29042567 103.16156473 12.6875 116.5 C12.15511719 117.26054687 11.62273437 118.02109375 11.07421875 118.8046875 C10.61660156 119.36414063 10.15898437 119.92359375 9.6875 120.5 C9.0275 120.5 8.3675 120.5 7.6875 120.5 C7.0275 121.82 6.3675 123.14 5.6875 124.5 C5.0275 124.5 4.3675 124.5 3.6875 124.5 C3.6875 125.16 3.6875 125.82 3.6875 126.5 C-2.97598886 130.60060853 -8.52940708 131.52657215 -16.3125 130.5 C-22.27118571 128.75264241 -25.82232467 125.52995856 -29.3125 120.5 C-32.04459703 114.68948378 -32.45984895 108.45045296 -30.66015625 102.25390625 C-28.59951407 97.71695587 -25.6304646 94.665248 -22.05078125 91.26953125 C-14.84223281 83.93139093 -12.20794242 74.7020572 -11.875 64.625 C-12.20437458 52.47766556 -16.29247053 44.41291546 -24.3125 35.5 C-29.79395539 29.24921754 -31.8197985 24.65583805 -31.6171875 16.28125 C-31.0392874 11.00605932 -29.28093754 7.31397263 -25.37109375 3.7109375 C-18.03595988 -1.98966378 -8.83460152 -3.93226382 0 0 Z " fill="#C0C0C0" transform="translate(128.3125,191.5)"/>
</svg>
